<?xml version="1.0" encoding="UTF-8" standalone="no"?>
<!-- Created with Inkscape (http://www.inkscape.org/) -->

<svg
   width="210mm"
   height="297mm"
   viewBox="0 0 210 297"
   version="1.1"
   id="svg5"
   sodipodi:docname="fruits.svg"
   inkscape:version="1.1 (c68e22c387, 2021-05-23)"
   inkscape:export-filename="C:\Users\matheus\Desktop\models\Orange.png"
   inkscape:export-xdpi="96"
   inkscape:export-ydpi="96"
   xmlns:inkscape="http://www.inkscape.org/namespaces/inkscape"
   xmlns:sodipodi="http://sodipodi.sourceforge.net/DTD/sodipodi-0.dtd"
   xmlns="http://www.w3.org/2000/svg"
   xmlns:svg="http://www.w3.org/2000/svg">
  <sodipodi:namedview
     id="namedview7"
     pagecolor="#505050"
     bordercolor="#ffffff"
     borderopacity="1"
     inkscape:pageshadow="0"
     inkscape:pageopacity="0"
     inkscape:pagecheckerboard="1"
     inkscape:document-units="mm"
     showgrid="false"
     inkscape:zoom="1"
     inkscape:cx="516.5"
     inkscape:cy="569.5"
     inkscape:window-width="1920"
     inkscape:window-height="1051"
     inkscape:window-x="-9"
     inkscape:window-y="-9"
     inkscape:window-maximized="1"
     inkscape:current-layer="layer1" />
  <defs
     id="defs2" />
  <g
     inkscape:label="Layer 1"
     inkscape:groupmode="layer"
     id="layer1">
    <circle
       id="path2980"
       style="fill:#008000;stroke:#000000;stroke-width:0.264583"
       cx="-97.696396"
       cy="-40.686531"
       r="0.042598628" />
    <circle
       id="path2982"
       style="fill:#008000;stroke:#000000;stroke-width:0.264583"
       cx="-97.696396"
       cy="-40.686531"
       r="0.042598628" />
    <g
       id="g4025"
       inkscape:export-filename="C:\Users\matheus\Desktop\models\cherry.png"
       inkscape:export-xdpi="96"
       inkscape:export-ydpi="96">
      <circle
         style="fill:#ff0000;fill-opacity:0.995951;stroke:#000000;stroke-width:0.347313;stroke-miterlimit:4.2;stroke-opacity:0"
         id="path171"
         cx="19.857998"
         cy="82.386566"
         r="18.777843" />
      <circle
         style="fill:#ff0000;fill-opacity:0.995951;stroke:#000000;stroke-width:0.347313;stroke-miterlimit:4.2;stroke-opacity:0"
         id="path171-2"
         cx="74.124237"
         cy="82.214294"
         r="18.777843" />
      <path
         id="path343"
         style="fill:#002b00;fill-opacity:0.995951;stroke:#000000;stroke-width:0.347313;stroke-miterlimit:4.2;stroke-opacity:0"
         d="m 48.895069,5.6488179 -3.474722,1.9001423 c 0.145782,0.47601 0.06573,0.2465284 0.237709,0.6898804 0.458314,1.2348029 0.427863,2.5962414 0.841809,3.8504104 0.0082,0.03533 0.01659,0.07061 0.02479,0.105937 l -0.642337,0.342615 c 0.269925,1.379522 0.567563,2.75417 0.79375,4.141866 0.619664,3.923707 1.067982,7.893631 0.961697,11.872144 -0.20369,5.807459 -0.632844,11.633282 -2.221053,17.253726 -0.335539,1.115689 -0.628457,2.245119 -1.006655,3.347082 -2.114997,6.162519 -5.379447,11.893891 -9.644375,16.818612 -2.464083,2.527329 -3.039173,3.277881 -5.765022,5.456515 -2.780204,2.22208 -5.871069,3.98217 -8.839768,5.92677 l 3.649387,-1.441257 c 2.88735,-1.884658 5.868858,-3.632726 8.549349,-5.817732 2.679168,-2.183921 3.275478,-2.967193 5.693711,-5.492686 4.247976,-4.986835 7.511008,-10.766052 9.625251,-16.967957 0.37942,-1.112996 0.674399,-2.252683 1.011825,-3.379123 1.481222,-5.231577 1.966825,-10.642476 2.21847,-16.050183 1.046245,3.190465 1.722525,5.351547 2.987413,8.611362 2.417778,6.230995 5.332053,12.265596 8.528161,18.131191 2.711162,4.898025 5.47679,9.768364 8.05429,14.738636 L 73.912132,67.73185 C 71.069044,62.903159 68.238246,58.0676 65.482155,53.188551 62.241705,47.362601 59.299732,41.358181 56.906454,35.131255 55.610673,31.759855 54.931599,29.496611 53.831189,26.081679 52.185901,20.896248 50.955615,15.600055 49.889826,10.270758 49.5314,8.968727 49.582671,7.5871684 49.11933,6.3185445 48.953275,5.8774224 49.027446,6.1005839 48.895056,5.6488179 Z" />
      <ellipse
         style="mix-blend-mode:lighten;fill:#808080;fill-opacity:0.995951;stroke:#000000;stroke-width:0.269695;stroke-miterlimit:4.2;stroke-opacity:0"
         id="path1628-8"
         cx="9.5645838"
         cy="-97.697227"
         rx="6.2406654"
         ry="3.312011"
         transform="rotate(133.74912)" />
      <ellipse
         style="mix-blend-mode:lighten;fill:#808080;fill-opacity:0.995951;stroke:#000000;stroke-width:0.295838;stroke-miterlimit:4.2;stroke-opacity:0"
         id="path1628-8-7"
         cx="80.963264"
         cy="-69.842232"
         rx="7.2030234"
         ry="3.452776"
         transform="matrix(-0.7060599,0.70815211,-0.97701563,-0.2131677,0,0)" />
      <g
         id="g3459"
         transform="matrix(0.60025792,0,0,0.44797194,30.405169,-5.1137644)">
        <g
           id="g3543">
          <g
             id="g3553"
             transform="matrix(0.96047807,0.40415357,-0.19171397,0.96047807,7.851645,-9.0485026)">
            <g
               id="g3548"
               transform="matrix(1.1084381,0.04902429,0.02325512,1.2151598,-6.0333332,-16.82877)">
              <path
                 id="path2787"
                 style="fill:#0b280b;fill-opacity:0.995951;stroke:#000000;stroke-width:1.31268;stroke-miterlimit:4.2;stroke-opacity:0"
                 d="m 167.94727,62.742188 c -4.04017,-0.01707 -8.09045,0.38608 -12.08008,1.152343 -1.77552,0.531621 -3.57888,0.975643 -5.32617,1.59375 -7.62712,2.698118 -14.66738,7.500107 -21.42774,11.533203 -4.55578,2.717889 -8.66928,6.192135 -12.48633,9.847657 -1.25096,1.367161 -2.55405,2.689342 -3.7539,4.101562 -1.20986,1.423986 -2.3242,2.926877 -3.47071,4.402344 -5.4316,6.990063 -10.56941,14.207953 -15.060543,21.845703 -5.263223,9.20614 -10.843687,18.59518 -13.46875,28.95898 l 2.28125,-1.12109 1.337891,-0.56836 c 0.357291,3.1173 0.479073,6.25906 1.039062,9.35547 0.499982,2.75732 0.68656,4.24134 1.513672,6.94531 1.593063,5.20799 4.179651,10.04327 7.126953,14.59766 0.850114,1.27562 1.647074,2.58794 2.550781,3.82617 4.636294,6.35246 10.485034,11.78403 16.417964,16.88867 3.60043,2.78088 4.52849,3.66463 8.46485,6.01953 6.25009,3.73909 13.11101,6.37834 20.1875,8.05274 4.28917,0.82567 6.20909,1.30984 10.5625,1.6914 7.88879,0.69141 15.83365,0.23436 23.73633,0.35743 11.65932,-0.0242 23.34347,-10e-4 34.96484,-1.07227 10.15475,-1.14274 20.25872,-2.88595 29.73242,-6.89258 2.57881,-1.06141 7.07139,-2.88183 9.58399,-4.03125 10.61765,-4.85716 20.65752,-10.9661 30.50781,-17.19336 7.01116,-4.8962 13.99737,-10.06594 19.4375,-16.73437 0.77355,-1.1368 1.61375,-2.23055 2.32031,-3.41016 4.00358,-6.68403 5.79746,-14.34725 7.0918,-21.94531 0.64918,-4.52858 1.03068,-6.79934 1.45117,-11.40039 0.75257,-8.23454 0.84694,-16.51422 0.97852,-24.77539 0.21475,-9.483993 0.59317,-18.95996 1.08007,-28.433596 l -5.57226,2.839844 c 0.96395,-1.579002 1.83342,-3.214538 2.58594,-4.929687 l -13.49414,6.166015 c -1.59859,3.407021 -3.67439,6.500186 -5.92188,9.515625 -3.56223,4.909588 -7.48391,9.498418 -12.37305,13.160159 -0.96618,0.71765 -1.91753,1.45771 -2.90039,2.15234 -0.21492,0.1519 -0.5526,0.37368 -0.90234,0.59961 -1.09094,0.48676 -2.17763,0.92368 -3.94531,1.66992 -7.55711,2.87494 -14.73808,4.80748 -22.88672,3.64258 -6.08947,-0.8065 -12.13663,-2.16239 -17.56836,-5.15234 -5.23187,-2.93996 -9.99514,-6.589237 -13.96094,-11.125003 -3.82895,-4.730668 -7.27396,-9.732141 -10.86328,-14.640625 -1.48615,-1.717879 -3.04909,-3.597861 -4.68164,-5.179688 -3.73078,-3.614865 -8.22182,-6.383799 -12.99024,-8.404296 -1.47557,-0.545235 -2.92127,-1.175334 -4.42578,-1.634766 -5.01881,-1.532588 -10.19807,-2.249542 -15.39257,-2.271484 z m -9.65625,8.279296 c 4.52552,0.06661 9.03771,0.712536 13.42773,2.017578 1.45123,0.431415 2.84654,1.033803 4.26953,1.550782 4.56688,2.002613 8.9189,4.59754 12.5293,8.068359 1.69705,1.631433 3.0132,3.253427 4.53906,5.035156 3.50469,4.943071 7.00167,9.879727 10.75195,14.644531 4.08139,4.65078 8.95074,8.48399 14.29297,11.56836 5.51357,3.13496 11.66363,4.66878 17.88282,5.59766 8.20708,1.30925 15.79118,-0.51761 23.49804,-3.2168 11.52747,-4.68116 22.50239,-10.93229 32.36328,-18.529298 3.08812,-2.39746 5.77192,-5.169756 8.22461,-8.15039 -0.0105,7.147323 -0.20534,14.299498 -0.30273,21.445308 -0.076,8.24698 -0.23053,16.51105 -1.04688,24.72461 -0.47611,4.79045 -0.83454,6.63934 -1.57422,11.34375 -1.38207,7.53203 -3.3811,15.11277 -7.5664,21.62696 -0.72752,1.13235 -1.59346,2.16945 -2.39063,3.2539 -5.65892,6.3484 -12.54138,11.47783 -19.55078,16.23633 -0.10331,0.0653 -0.33724,0.20553 -0.46875,0.28711 -0.34472,0.18995 -0.73666,0.41103 -0.97656,0.53516 -4.66708,2.41485 -9.46743,4.44484 -14.31641,6.45703 -9.41456,4.05329 -19.44163,5.97789 -29.55273,7.24023 -11.63415,1.1737 -23.34243,1.21628 -35.02344,1.3125 -7.84257,-0.10031 -15.71996,0.2543 -23.54883,-0.39843 -4.37755,-0.36499 -6.09728,-0.77919 -10.42968,-1.55469 -8.68983,-1.90373 -16.97399,-5.35632 -24.25782,-10.49024 -1.3681,-0.96429 -2.65679,-2.03729 -3.98437,-3.05664 -5.86053,-5.02291 -11.55336,-10.40528 -16.11914,-16.66601 -0.88189,-1.20927 -1.68079,-2.47463 -2.52149,-3.71289 -2.87046,-4.47646 -5.31687,-9.23391 -6.785153,-14.36329 -0.800576,-2.79677 -0.902289,-3.91463 -1.371094,-6.75976 -0.428514,-2.90071 -0.469892,-5.8258 -0.728515,-8.73633 4.114942,-1.67079 8.441182,-2.69362 12.855472,-3.36914 8.99201,-1.01799 18.0419,-1.07908 27.05664,-0.41992 9.25931,0.76044 18.2666,3.02875 27.09765,5.81641 6.88944,2.02999 13.56891,4.6182 20.17188,7.42382 4.96113,1.83274 9.87339,3.78041 14.68555,5.97657 4.47824,1.93793 9.0047,3.65554 13.67773,5.05664 4.16691,1.30611 8.47334,1.7185 12.80859,1.92578 5.40649,0.44536 10.65922,-0.63273 15.84571,-2.01953 9.27815,-2.52286 17.41017,-7.76825 25.4082,-13.00782 3.74096,-2.20484 7.02088,-5.06846 10.44922,-7.71484 2.81458,-2.3852 5.61587,-4.77622 8.4082,-7.18945 2.57221,-2.08952 4.55884,-4.80319 6.35156,-7.56446 0.90073,-1.08379 1.61548,-2.27992 2.2793,-3.51562 l -13.58789,6.05664 c -0.70488,1.15427 -1.4541,2.27672 -2.25,3.37109 -1.90602,2.62831 -3.87835,5.20551 -6.4707,7.20703 -2.75706,2.41985 -5.57714,4.77108 -8.41016,7.09961 -2.09157,1.62296 -4.14647,3.29857 -6.28906,4.85157 -1.41422,0.52375 -2.85102,0.97371 -4.2832,1.47656 -5.05902,1.50747 -10.21697,2.84008 -15.54688,2.37891 -4.24785,-0.1615 -8.49735,-0.46191 -12.60938,-1.63086 -1.51767,-0.43648 -3.05172,-0.81603 -4.55468,-1.30079 -3.08799,-0.99597 -5.95246,-2.5406 -9.02539,-3.57421 -4.85108,-2.19241 -9.7685,-4.23158 -14.8125,-5.94141 -6.70457,-2.7865 -13.47195,-5.36868 -20.45313,-7.39453 -8.93021,-2.81014 -18.03632,-5.19201 -27.39258,-6.00391 -3.70384,-0.31143 -6.22986,-0.58661 -9.94336,-0.64844 -5.68314,-0.0946 -11.38151,0.295 -17.04882,0.64649 -5.8413,0.67694 -11.57838,1.95359 -16.83789,4.69336 -3.35794,1.5532 -6.716843,3.21485 -9.982426,5.04492 2.439678,-8.66464 7.200076,-16.64421 11.636716,-24.39062 4.55282,-7.66989 9.89323,-14.817094 15.42578,-21.79688 1.17108,-1.477402 2.299,-2.992126 3.53907,-4.412109 1.21247,-1.388398 2.542,-2.67036 3.8125,-4.00586 3.64195,-3.198626 4.03052,-3.661699 7.17773,-5.894531 1.0053,-0.52145 2.0909,-1.084168 2.74024,-1.333984 1.73531,-0.667624 3.53147,-1.168478 5.29687,-1.751954 4.4452,-1.010229 8.98424,-1.521689 13.50977,-1.455078 z m 123.26367,31.173826 c 0.68709,-0.38591 -0.26676,0.16525 -1.39649,0.80664 0.46584,-0.26838 0.92787,-0.54343 1.39649,-0.80664 z"
                 transform="scale(0.26458333)" />
              <path
                 style="fill:#008000;fill-opacity:0.995951;stroke:#000000;stroke-width:1.20874;stroke-miterlimit:4.2;stroke-opacity:0"
                 d="m 156.0779,202.19331 c -14.49696,-2.80717 -25.00578,-8.46377 -36.73173,-19.77167 -12.66111,-12.20972 -19.594384,-24.86653 -20.566985,-37.54537 l -0.506102,-6.59755 3.580037,-1.02566 c 7.11221,-2.0376 19.33704,-3.03775 30.28362,-2.4776 16.69887,0.85449 30.28292,4.49021 56.16963,15.03354 22.19822,9.04106 26.73915,10.45333 35.52882,11.04979 14.10602,0.95723 25.86858,-3.02459 43.29594,-14.65639 10.27381,-6.85719 21.35202,-16.469 24.8628,-21.57174 1.56416,-2.27343 2.63545,-4.34198 2.38066,-4.59677 -0.2548,-0.2548 -3.50608,0.94304 -7.22507,2.66186 -5.0133,2.31702 -7.35706,4.02109 -9.06383,6.58999 -1.26612,1.90568 -6.41178,6.9174 -11.4348,11.13716 -11.00113,9.24188 -15.73009,11.05414 -28.62059,10.96819 -8.94274,-0.0596 -15.11029,-1.50853 -25.78278,-6.05697 -13.88279,-5.91662 -33.13182,-12.82961 -43.02662,-15.45235 -14.09483,-3.736 -25.49727,-4.99094 -39.38619,-4.3348 -12.17838,0.57534 -17.4188,1.75699 -27.14528,6.12097 -4.64723,2.08507 -6.004007,2.39004 -6.004007,1.34956 0,-1.95028 9.146137,-19.32525 13.821967,-26.25768 12.10898,-17.952901 21.7908,-28.478729 29.45135,-32.018752 7.35498,-3.398818 22.01091,-3.964465 31.11002,-1.200694 10.41642,3.163889 16.47538,7.892369 25.37959,19.806493 12.40653,16.600343 21.0324,22.794823 36.05707,25.893593 11.8513,2.44427 21.35123,0.61937 36.7045,-7.0508 9.9059,-4.94878 20.87653,-12.03087 26.48348,-17.096408 l 3.571,-3.226193 v 16.584231 c 0,36.92201 -4.29478,55.16008 -15.62021,66.33213 -13.33246,13.15192 -32.29238,22.46721 -53.90524,26.48445 -11.38063,2.11535 -64.09581,2.77764 -73.66105,0.92544 z"
                 id="path3283"
                 transform="scale(0.26458333)" />
            </g>
          </g>
        </g>
      </g>
    </g>
    <path
       style="fill:#008000;fill-opacity:0.996078;stroke:#000000;stroke-width:1.20874;stroke-miterlimit:4.2;stroke-opacity:0"
       d=""
       id="path21389"
       transform="scale(0.26458333)" />
    <path
       style="fill:#012a10;fill-opacity:1;stroke:#000000;stroke-width:0.0534192;stroke-miterlimit:4.2;stroke-opacity:0"
       d=""
       id="path25086"
       transform="scale(0.26458333)" />
    <path
       style="fill:#012a10;fill-opacity:1;stroke:#000000;stroke-width:0.00512767;stroke-miterlimit:4.2;stroke-opacity:0"
       d=""
       id="path25398"
       transform="scale(0.26458333)" />
    <path
       style="fill:#012a10;fill-opacity:1;stroke:#000000;stroke-width:0.00512767;stroke-miterlimit:4.2;stroke-opacity:0"
       d=""
       id="path25437"
       transform="scale(0.26458333)" />
    <g
       id="g27491"
       inkscape:export-filename="C:\Users\matheus\Desktop\models\strawberry.png"
       inkscape:export-xdpi="96"
       inkscape:export-ydpi="96">
      <g
         id="g30538"
         transform="translate(61.236686,-101.80606)">
        <g
           id="g30482">
          <path
             id="path3614-0"
             style="fill:#aa0000;fill-opacity:0.995951;stroke:#000000;stroke-width:1.31268;stroke-miterlimit:4.2;stroke-opacity:1"
             d="m 395.94922,487.73828 a 144.39928,131.50792 0 0 0 -137.72461,92.06836 140.42407,85.63566 60 0 0 -0.21094,0.54883 144.39928,131.50792 0 0 0 -0.20117,0.64844 140.42407,85.63566 60 0 0 -2.19336,7.46093 144.39928,131.50792 0 0 0 -4.06836,30.78321 144.39928,131.50792 0 0 0 7.11328,40.57812 140.42407,85.63566 60 0 0 21.68555,51.50195 140.42407,85.63566 60 0 0 139.7207,81.14258 85.63566,140.42407 30 0 0 91.47852,-82.0625 85.63566,140.42407 30 0 0 20.72461,-48.07617 144.39928,131.50792 0 0 0 8.07617,-43.08398 144.39928,131.50792 0 0 0 -2.38086,-23.74024 85.63566,140.42407 30 0 0 -8.10156,-25.42383 144.39928,131.50792 0 0 0 -133.91797,-82.3457 z"
             transform="scale(0.26458333)" />
          <path
             style="fill:#002b11;fill-opacity:0.995951;stroke:#000000;stroke-width:0.347313;stroke-miterlimit:4.2;stroke-opacity:1;paint-order:markers stroke fill"
             id="path4214"
             d="m 98.602833,129.64992 c -1.531019,-0.23625 -3.096974,-0.32585 -4.641683,-0.17401 -0.413422,0.0406 -0.822857,0.1148 -1.234287,0.1722 -0.387334,0.10363 -0.784606,0.17546 -1.162002,0.31089 -1.585722,0.56901 -4.857636,2.86303 -5.2343,3.13386 -0.378116,0.27188 -0.631449,0.6848 -0.940199,1.03345 -1.921793,2.17019 0.02429,0.0578 -1.952577,2.17525 1.018259,-0.28628 -3.050517,2.17548 -2.236182,1.70947 0.679442,-0.38883 1.445297,-0.68271 1.993463,-1.24158 0.28924,-0.29489 -0.771779,0.29991 -1.171601,0.40366 -0.80744,0.20951 -1.231934,0.19521 -2.031048,0.23594 -2.389624,-0.0872 -0.824817,-0.7499 -4.30867,2.1526 -0.100325,0.0836 0.260725,-0.0418 0.390673,-0.029 0.210177,0.0208 0.413559,0.086 0.620339,0.12901 2.384317,0.81769 4.59322,2.05144 6.887456,3.08179 1.765279,0.74125 3.639037,1.29143 5.562127,1.38635 0.347792,0.0172 0.696431,2.6e-4 1.044643,5.3e-4 1.601484,-0.12343 3.117567,-0.63945 4.534517,-1.3725 0,0 2.995745,-2.41612 2.995745,-2.41612 v 0 c -1.376622,0.80574 -2.870116,1.35809 -4.462325,1.55268 -0.340815,0.0104 -0.681562,0.0387 -1.022448,0.0311 -1.906773,-0.0428 -3.773832,-0.54027 -5.531035,-1.25503 -2.294814,-1.02034 -4.526418,-2.17102 -6.816151,-3.20249 -0.205939,-0.0679 -0.410554,-0.13997 -0.617818,-0.20371 -0.142558,-0.0438 -0.302829,-0.19464 -0.431342,-0.11895 -3.82442,2.25252 -4.495086,2.42359 -1.920539,2.51929 0.760931,-0.0308 1.381892,-0.0268 2.140526,-0.19227 2.093209,-0.45665 3.741973,-1.71923 5.611281,-2.82309 0.40004,-0.23623 0.775052,-0.51505 1.135637,-0.80799 0.371581,-0.30188 0.704342,-0.64862 1.056515,-0.97293 0.662102,-0.71898 1.297639,-1.46229 1.965558,-2.17587 0.320106,-0.34199 1.455928,-1.03725 0.989126,-0.99823 -0.832085,0.0696 -1.489053,0.75712 -2.248791,1.10353 -0.707843,0.32275 2.799768,-1.51654 2.154796,-0.89652 0.406161,-0.0669 0.809677,-0.15256 1.218488,-0.20069 1.46753,-0.17276 2.958478,-0.0695 4.408429,0.19374 0,0 3.253679,-2.24426 3.253679,-2.24426 z" />
          <path
             style="fill:#002b11;fill-opacity:0.995951;stroke:#000000;stroke-width:0.347313;stroke-miterlimit:4.2;stroke-opacity:1;paint-order:markers stroke fill"
             id="path4218"
             d="m 92.723556,142.14051 c -0.240305,1.37115 -0.291788,2.77153 -0.249304,4.16022 0.09059,1.86328 0.552154,3.66026 1.194724,5.40176 0.470355,1.57798 1.25798,3.01848 2.017342,4.46812 0.435033,0.67959 0.909968,2.19339 1.62161,2.61735 0.101224,0.0603 0.222046,0.0789 0.333068,0.11837 0.13711,-0.0127 0.278138,-0.003 0.411329,-0.0379 0.168881,-0.0443 0.332822,-0.11198 0.485267,-0.19708 2.217318,-1.23778 3.611378,-1.91991 5.337068,-3.37862 1.13802,-0.87167 1.8658,-2.07352 2.57376,-3.29117 0.80565,-1.54705 1.32635,-3.19684 1.83819,-4.85647 0.41035,-1.58935 0.83016,-3.17631 1.24673,-4.76406 0.22685,-0.91281 0.35912,-1.84578 0.48622,-2.77679 0.0168,-0.14041 0.0336,-0.28082 0.0503,-0.42123 0,0 -3.51096,1.73752 -3.51096,1.73752 v 0 c -0.0158,0.13711 -0.0316,0.27423 -0.0474,0.41135 -0.12609,0.91529 -0.27521,1.82933 -0.48447,2.72955 -0.36872,1.57594 -0.74068,3.15055 -1.18136,4.70863 -0.5132,1.64962 -1.09296,3.27748 -1.92504,4.798 -0.71652,1.19425 -1.49832,2.32693 -2.63213,3.1696 -0.44606,0.35738 -0.586249,0.48398 -1.053426,0.80326 -0.161026,0.11005 -0.663049,0.41057 -0.49261,0.31575 5.200046,-2.89291 3.281416,-1.82109 2.114776,-1.23292 -0.0774,0.0185 -0.154,0.0695 -0.23234,0.0553 -0.25093,-0.0454 -0.43025,-0.3331 -0.5522,-0.5076 -0.417468,-0.59733 -0.701993,-1.2689 -1.061752,-1.8998 -0.735904,-1.44184 -1.509872,-2.87429 -1.994263,-4.42665 -0.627001,-1.70161 -1.084043,-3.45975 -1.1474,-5.28257 -0.01209,-1.40032 0.08176,-2.80248 0.407239,-4.16918 0,0 -3.552968,1.74727 -3.552968,1.74727 z" />
          <path
             style="fill:#002b11;fill-opacity:0.995951;stroke:#000000;stroke-width:0.347;stroke-linecap:square;stroke-linejoin:round;stroke-miterlimit:4.2;stroke-dasharray:none;stroke-opacity:1;paint-order:markers stroke fill"
             id="path4386"
             d="m 105.55665,141.2521 c 1.28702,-0.0257 2.52807,0.43581 3.77162,0.71973 1.50164,0.33933 3.03973,0.40545 4.57255,0.44668 2.0589,-0.01 4.11871,0.0452 6.17696,-0.013 1.79944,0.0262 3.52993,-0.46394 5.25009,-0.92541 1.69319,-0.52564 2.90869,-1.48413 4.54932,-2.45382 0.28975,-0.17126 0.10743,-0.31052 -0.047,-0.54921 -0.3123,-0.16246 -0.62114,-0.0317 -0.94433,0.0226 -0.40598,0.0683 -0.2871,0.0514 -0.70008,0.042 -1.34328,-0.44356 -2.29151,-1.6158 -3.15056,-2.68264 -0.94864,-1.26483 -1.94968,-2.48058 -2.98665,-3.67373 -0.70512,-0.81215 -1.49671,-1.5138 -2.36276,-2.14604 -0.9546,-0.645 -1.96495,-1.18476 -3.0293,-1.62244 -1.29301,-0.52387 -2.62781,-0.92685 -3.96244,-1.32755 -1.09396,-0.29945 -2.22193,-0.4531 -3.35085,-0.5404 -0.51598,-0.0393 -1.03335,-0.0418 -1.55045,-0.046 0,0 -3.17565,2.30524 -3.17565,2.30524 v 0 c 0.51571,6e-5 1.03158,0.002 1.54704,0.0199 1.11943,0.055 2.24142,0.16256 3.32829,0.44962 1.32993,0.38674 2.66945,0.74948 3.9464,1.29494 1.04452,0.40498 2.01497,0.94228 2.94667,1.56394 0.38407,0.2705 0.79265,0.52987 1.14193,0.84572 0.42107,0.38075 0.79665,0.81672 1.21227,1.20358 1.05807,1.16865 2.0645,2.37346 3.00606,3.63844 0.91052,1.15341 1.89259,2.31981 3.23469,2.98127 0.13607,0.0315 0.26894,0.0839 0.4082,0.0945 0.28333,0.0215 0.85075,-0.069 1.10061,-0.24317 -0.0352,-0.0863 -0.059,-0.17808 -0.10547,-0.25882 -0.0424,-0.0736 -0.19536,0.0779 -0.17763,0.0679 5.8519,-3.29986 3.52027,-1.87641 2.18463,-1.33792 -1.71941,0.4733 -3.43718,1.05226 -5.24344,1.03298 -2.04377,0.0665 -4.08969,0.0487 -6.13392,0.008 -1.51378,-0.0374 -3.03397,-0.0877 -4.52282,-0.39096 -0.68456,-0.14819 -0.81444,-0.16668 -1.49113,-0.35177 -0.62019,-0.16964 -1.24425,-0.39928 -1.88342,-0.49244 -0.11743,-0.0171 -0.23725,-0.006 -0.35587,-0.01 0,0 -3.20352,2.3275 -3.20352,2.3275 z" />
          <ellipse
             style="fill:#ffff6e;fill-opacity:0.995951;stroke:#000000;stroke-width:0.20251;stroke-miterlimit:4.2;stroke-opacity:1"
             id="path4783"
             cx="74.551369"
             cy="164.81699"
             rx="0.3160336"
             ry="1.899641" />
          <ellipse
             style="fill:#ffff6e;fill-opacity:0.995951;stroke:#000000;stroke-width:0.20251;stroke-miterlimit:4.2;stroke-opacity:1"
             id="path4783-2"
             cx="89.656548"
             cy="160.3098"
             rx="0.3160336"
             ry="1.899641" />
          <ellipse
             style="fill:#ffff6e;fill-opacity:0.995951;stroke:#000000;stroke-width:0.20251;stroke-miterlimit:4.2;stroke-opacity:1"
             id="path4783-5"
             cx="50.374825"
             cy="220.10437"
             rx="0.3160336"
             ry="1.899641"
             transform="rotate(-17.796946)" />
          <ellipse
             style="fill:#ffff6e;fill-opacity:0.995951;stroke:#000000;stroke-width:0.20251;stroke-miterlimit:4.2;stroke-opacity:1"
             id="path4783-5-1"
             cx="55.034557"
             cy="209.57397"
             rx="0.3160336"
             ry="1.899641"
             transform="rotate(-17.796946)" />
          <ellipse
             style="fill:#ffff6e;fill-opacity:0.995951;stroke:#000000;stroke-width:0.20251;stroke-miterlimit:4.2;stroke-opacity:1"
             id="path4783-5-3"
             cx="40.623398"
             cy="216.20648"
             rx="0.3160336"
             ry="1.899641"
             transform="rotate(-17.796946)" />
          <ellipse
             style="fill:#ffff6e;fill-opacity:0.995951;stroke:#000000;stroke-width:0.20251;stroke-miterlimit:4.2;stroke-opacity:1"
             id="path4783-82"
             cx="129.85582"
             cy="148.37184"
             rx="0.3160336"
             ry="1.899641" />
          <ellipse
             style="fill:#ffff6e;fill-opacity:0.995951;stroke:#000000;stroke-width:0.20251;stroke-miterlimit:4.2;stroke-opacity:1"
             id="path4783-3"
             cx="108.41621"
             cy="171.7605"
             rx="0.3160336"
             ry="1.899641" />
          <ellipse
             style="fill:#ffff6e;fill-opacity:0.995951;stroke:#000000;stroke-width:0.20251;stroke-miterlimit:4.2;stroke-opacity:1"
             id="path4783-89"
             cx="145.46782"
             cy="172.72939"
             rx="0.3160336"
             ry="1.899641"
             transform="rotate(6.4987897)" />
          <ellipse
             style="fill:#ffff6e;fill-opacity:0.995951;stroke:#000000;stroke-width:0.20251;stroke-miterlimit:4.2;stroke-opacity:1"
             id="path4783-89-9"
             cx="124.23371"
             cy="141.30962"
             rx="0.3160336"
             ry="1.899641"
             transform="rotate(6.4987897)" />
          <ellipse
             style="fill:#ffff6e;fill-opacity:0.995951;stroke:#000000;stroke-width:0.20251;stroke-miterlimit:4.2;stroke-opacity:1"
             id="path4783-89-2"
             cx="107.38696"
             cy="159.16719"
             rx="0.3160336"
             ry="1.899641"
             transform="rotate(6.4987897)" />
          <ellipse
             style="fill:#ffff6e;fill-opacity:0.995951;stroke:#000000;stroke-width:0.20251;stroke-miterlimit:4.2;stroke-opacity:1"
             id="path4783-89-0"
             cx="120.22554"
             cy="170.70068"
             rx="0.3160336"
             ry="1.899641"
             transform="rotate(6.4987897)" />
          <ellipse
             style="fill:#ffff6e;fill-opacity:0.995951;stroke:#000000;stroke-width:0.20251;stroke-miterlimit:4.2;stroke-opacity:1"
             id="path4783-89-0-51"
             cx="134.09976"
             cy="187.02037"
             rx="0.3160336"
             ry="1.899641"
             transform="rotate(6.4987897)" />
          <ellipse
             style="fill:#ffff6e;fill-opacity:0.995951;stroke:#000000;stroke-width:0.20251;stroke-miterlimit:4.2;stroke-opacity:1"
             id="path4783-89-0-4"
             cx="111.6766"
             cy="173.14578"
             rx="0.3160336"
             ry="1.899641"
             transform="rotate(6.4987897)" />
          <ellipse
             style="fill:#ffff6e;fill-opacity:0.995951;stroke:#000000;stroke-width:0.20251;stroke-miterlimit:4.2;stroke-opacity:1"
             id="path4783-89-0-0"
             cx="150.47792"
             cy="145.67625"
             rx="0.3160336"
             ry="1.899641"
             transform="rotate(6.4987897)" />
          <ellipse
             style="fill:#ffff6e;fill-opacity:0.995951;stroke:#000000;stroke-width:0.20251;stroke-miterlimit:4.2;stroke-opacity:1"
             id="path4783-89-0-42"
             cx="150.6095"
             cy="164.05182"
             rx="0.3160336"
             ry="1.899641"
             transform="rotate(6.4987897)" />
          <ellipse
             style="fill:#ffff6e;fill-opacity:0.995951;stroke:#000000;stroke-width:0.20251;stroke-miterlimit:4.2;stroke-opacity:1"
             id="path4783-89-0-5"
             cx="131.42223"
             cy="133.37971"
             rx="0.3160336"
             ry="1.899641"
             transform="rotate(6.4987897)" />
          <ellipse
             style="fill:#ffff6e;fill-opacity:0.995951;stroke:#000000;stroke-width:0.20251;stroke-miterlimit:4.2;stroke-opacity:1"
             id="path4783-89-26"
             cx="142.98608"
             cy="150.94341"
             rx="0.3160336"
             ry="1.899641"
             transform="rotate(6.4987897)" />
          <ellipse
             style="fill:#ffff6e;fill-opacity:0.995951;stroke:#000000;stroke-width:0.20251;stroke-miterlimit:4.2;stroke-opacity:1"
             id="path4783-6"
             cx="117.18695"
             cy="155.19353"
             rx="0.3160336"
             ry="1.899641" />
          <ellipse
             style="fill:#ffff6e;fill-opacity:0.995951;stroke:#000000;stroke-width:0.20251;stroke-miterlimit:4.2;stroke-opacity:1"
             id="path4783-63"
             cx="84.783905"
             cy="188.08385"
             rx="0.3160336"
             ry="1.899641" />
          <ellipse
             style="fill:#ffff6e;fill-opacity:0.995951;stroke:#000000;stroke-width:0.20251;stroke-miterlimit:4.2;stroke-opacity:1"
             id="path4783-21"
             cx="71.142731"
             cy="203.91434"
             rx="0.3160336"
             ry="1.899641"
             transform="rotate(-6.5803531)" />
          <ellipse
             style="fill:#ffff6e;fill-opacity:0.995951;stroke:#000000;stroke-width:0.20251;stroke-miterlimit:4.2;stroke-opacity:1"
             id="path4783-21-8"
             cx="61.042328"
             cy="187.2986"
             rx="0.3160336"
             ry="1.899641"
             transform="rotate(-6.5803531)" />
          <ellipse
             style="fill:#ffff6e;fill-opacity:0.995951;stroke:#000000;stroke-width:0.20251;stroke-miterlimit:4.2;stroke-opacity:1"
             id="path4783-21-1"
             cx="61.553596"
             cy="161.60658"
             rx="0.3160336"
             ry="1.899641"
             transform="rotate(-6.5803531)" />
          <ellipse
             style="fill:#ffff6e;fill-opacity:0.995951;stroke:#000000;stroke-width:0.20251;stroke-miterlimit:4.2;stroke-opacity:1"
             id="path4783-21-1-6"
             cx="62.745411"
             cy="172.53496"
             rx="0.3160336"
             ry="1.899641"
             transform="rotate(-6.5803531)" />
          <ellipse
             style="fill:#ffff6e;fill-opacity:0.995951;stroke:#000000;stroke-width:0.20251;stroke-miterlimit:4.2;stroke-opacity:1"
             id="path4783-21-1-6-0"
             cx="71.495193"
             cy="158.33896"
             rx="0.3160336"
             ry="1.899641"
             transform="rotate(-6.5803531)" />
          <ellipse
             style="fill:#ffff6e;fill-opacity:0.995951;stroke:#000000;stroke-width:0.20251;stroke-miterlimit:4.2;stroke-opacity:1"
             id="path4783-21-4"
             cx="94.646545"
             cy="180.87466"
             rx="0.3160336"
             ry="1.899641"
             transform="rotate(-6.5803531)" />
          <ellipse
             style="fill:#ffff6e;fill-opacity:0.995951;stroke:#000000;stroke-width:0.20251;stroke-miterlimit:4.2;stroke-opacity:1"
             id="path4783-21-6"
             cx="75.545273"
             cy="187.00963"
             rx="0.3160336"
             ry="1.899641"
             transform="rotate(-6.5803531)" />
          <ellipse
             style="fill:#ffff6e;fill-opacity:0.995951;stroke:#000000;stroke-width:0.20251;stroke-miterlimit:4.2;stroke-opacity:1"
             id="path4783-33"
             cx="100.37635"
             cy="166.88786"
             rx="0.3160336"
             ry="1.899641" />
          <ellipse
             style="fill:#ffff6e;fill-opacity:0.995951;stroke:#000000;stroke-width:0.20251;stroke-miterlimit:4.2;stroke-opacity:1"
             id="path4783-32"
             cx="103.0563"
             cy="203.67628"
             rx="0.3160336"
             ry="1.899641" />
          <ellipse
             style="fill:#ffff6e;fill-opacity:0.995951;stroke:#000000;stroke-width:0.20251;stroke-miterlimit:4.2;stroke-opacity:1"
             id="path4783-34"
             cx="124.49592"
             cy="176.87677"
             rx="0.3160336"
             ry="1.899641" />
          <path
             style="fill:#012a10;fill-opacity:1;stroke:#000000;stroke-width:0.347313;stroke-miterlimit:4.2;stroke-opacity:1"
             id="path10231"
             d="m 94.754786,131.51922 c 0.391449,0.14562 0.822801,0.19159 1.207696,-0.0271 2.734183,-1.55374 3.393834,-1.54977 4.765428,-3.41262 0.95866,-1.47609 0.98554,-3.25927 1.06372,-4.96041 0.0879,-1.3686 0.0649,-2.75436 0.4484,-4.0845 0.2158,-0.74838 0.41135,-1.12055 0.72745,-1.82914 1.08037,-1.9281 2.54899,-3.59564 4.05142,-5.20202 0.71877,-0.71688 1.48928,-1.38268 2.28055,-2.01806 0,0 -3.60138,1.45267 -3.60138,1.45267 v 0 c -0.7525,0.64522 -1.50053,1.2999 -2.17312,2.02988 -1.49005,1.64969 -2.99011,3.3353 -4.014125,5.32502 -0.312785,0.75038 -0.492146,1.10599 -0.696632,1.89785 -0.34884,1.35085 -0.303141,2.75289 -0.414306,4.13266 -0.109651,1.65986 -0.196858,3.38332 -1.217909,4.77395 -0.153641,0.18173 -0.295227,0.37439 -0.460922,0.5452 -0.163127,0.16817 -0.735344,0.56879 -0.523203,0.46935 0.971764,-0.45552 1.875573,-1.04408 2.823374,-1.54756 0.135342,-0.0719 -0.24347,0.19212 -0.384532,0.25203 -0.104074,0.0442 -0.221999,0.0485 -0.334958,0.0535 -0.07967,0.004 -0.158398,-0.0187 -0.237598,-0.0281 0,0 -3.309353,2.17744 -3.309353,2.17744 z" />
          <path
             style="fill:#012a10;fill-opacity:1;stroke:#000000;stroke-width:0.347313;stroke-miterlimit:4.2;stroke-opacity:1"
             id="path10239"
             d="m 108.35183,128.13199 c -0.65159,-1.78608 -0.95225,-3.68114 -1.2376,-5.55407 -0.27027,-1.66262 -0.33308,-3.34156 0.0707,-4.98891 0.0721,-0.29435 0.17628,-0.57992 0.26442,-0.86988 0.56439,-1.48362 1.51808,-2.77047 2.37341,-4.09499 0.41788,-0.87521 1.19027,-1.36295 1.98516,-1.84962 -7.30414,4.25094 -0.27967,0.16022 0.64415,-0.36566 1.03163,-0.58726 -2.05505,1.18888 -3.07874,1.78989 -0.0713,0.0419 0.14959,-0.0711 0.2213,-0.1123 3.5613,-2.04762 3.22922,-0.71778 3.55599,-2.17246 -0.20854,-0.56646 -0.80102,-0.57419 -1.29884,-0.7524 -0.55516,-0.16639 -1.09386,-0.38386 -1.65593,-0.52601 -0.36674,-0.0716 -0.18368,-0.0405 -0.54912,-0.0939 0,0 -3.22059,2.28153 -3.22059,2.28153 v 0 c 0.35161,0.0328 0.17569,0.0126 0.52774,0.0608 0.56078,0.10729 1.08092,0.33059 1.6308,0.47994 0.0806,0.0303 1.17072,0.54618 0.90507,0.12303 -1.31264,-0.10325 -0.0693,0.007 3.18536,-1.87263 0.0755,-0.0436 -0.1552,0.0798 -0.23104,0.12285 -1.22139,0.69399 -2.42908,1.41242 -3.66056,2.08835 -0.21201,0.11637 9.52778,-5.47104 -0.62551,0.36761 -0.7921,0.52103 -1.46381,1.12403 -1.88591,1.99419 -0.83592,1.34347 -1.77275,2.65151 -2.27166,4.16861 -0.083,0.30263 -0.18178,0.60137 -0.24899,0.90789 -0.36873,1.68183 -0.2451,3.39118 0.0284,5.07627 0.28435,1.90957 0.61686,3.81506 1.11504,5.6821 0,0 3.45696,-1.89027 3.45696,-1.89027 z" />
          <path
             style="fill:#012a10;fill-opacity:1;stroke:#000000;stroke-width:0.604369;stroke-miterlimit:4.2;stroke-opacity:1"
             d="m 378.16051,589.71295 c -0.70704,-1.10204 -3.16903,-5.733 -5.47109,-10.29102 -4.45481,-8.82042 -7.86054,-18.10909 -9.20016,-25.09217 -0.74369,-3.87665 -1.02252,-15.31455 -0.43082,-17.6721 0.15155,-0.60384 1.6216,-2.17653 3.26678,-3.4949 1.64517,-1.31836 2.90151,-2.48672 2.79187,-2.59636 -0.10964,-0.10964 -1.10955,0.32097 -2.22203,0.9569 -2.63156,1.5043 -3.3591,1.50828 -2.98465,0.0163 0.1589,-0.63306 0.17817,-1.15102 0.0428,-1.15102 -0.13533,0 -2.78086,1.28607 -5.87896,2.85794 l -5.63288,2.85793 -3.91346,-0.0451 c -4.99396,-0.0575 -10.80988,-1.15174 -16.47906,-3.10032 -4.44474,-1.52771 -21.72418,-9.46097 -21.73109,-9.97708 -0.002,-0.14868 2.84515,-2.01202 6.32698,-4.14076 5.89149,-3.60198 6.88945,-4.43224 14.38771,-11.96994 5.69015,-5.72007 8.46289,-8.18898 9.43834,-8.40409 3.11525,-0.68701 11.32457,-0.87561 15.47084,-0.35543 l 4.32665,0.54281 6.9106,-3.83491 c 3.80083,-2.1092 7.53013,-4.28072 8.28732,-4.82559 1.12071,-0.80645 2.47302,-1.08108 7.27199,-1.47678 3.2424,-0.26735 7.42139,-0.4861 9.28665,-0.4861 h 3.3914 l 0.32092,1.49632 c 0.17651,0.82298 0.41176,1.6507 0.52278,1.83938 0.11101,0.18869 1.71601,-0.48797 3.56667,-1.50367 l 3.36483,-1.84672 5.47222,0.47185 c 7.50515,0.64714 16.65757,3.39628 24.71156,7.42269 8.33683,4.16782 13.89026,9.2132 23.6132,21.45297 2.97494,3.74502 6.56026,8.00042 7.96739,9.45645 l 2.55843,2.64734 H 452.0699 c -18.43097,0 -23.23398,-0.41659 -32.63933,-2.831 -3.92496,-1.00756 -7.55067,-1.75091 -8.05712,-1.6519 -0.50644,0.099 -3.60012,2.13229 -6.87483,4.51839 l -5.95402,4.33838 1.9559,0.14306 c 1.85243,0.13549 1.94291,0.20856 1.71037,1.38122 -0.13504,0.68099 -0.47162,2.58485 -0.74794,4.2308 -0.27633,1.64596 -1.51646,7.13631 -2.75586,12.20078 -4.98212,20.358 -10.30884,31.80898 -18.06571,38.83624 l -1.19532,1.08289 z"
             id="path24624"
             transform="scale(0.26458333)" />
          <path
             style="fill:#012a10;fill-opacity:1;stroke:#000000;stroke-width:0.604369;stroke-miterlimit:4.2;stroke-opacity:1"
             d="m 379.33533,486.18508 c 1.06522,-1.34759 2.24665,-3.04945 2.62542,-3.78191 1.5315,-2.96158 2.47309,-8.3589 2.94346,-16.87218 0.26064,-4.7175 0.69982,-10.02755 0.97594,-11.80011 1.31312,-8.42952 5.94344,-16.10911 17.16328,-28.46602 2.02975,-2.23545 4.05142,-4.25765 4.49261,-4.49376 0.54481,-0.29158 1.40368,-0.18863 2.6771,0.32089 l 1.87493,0.7502 -2.74399,1.62328 c -4.03589,2.38753 -5.93968,4.61288 -10.72776,12.53975 -8.1495,13.49183 -9.0308,19.70074 -5.64408,39.76365 0.63546,3.76451 1.35314,7.70098 1.59483,8.74772 0.24169,1.04675 0.4445,2.13072 0.45069,2.40884 0.007,0.33067 -2.32457,0.61604 -6.73802,0.82458 -3.7121,0.17539 -7.67894,0.44633 -8.81521,0.60207 l -2.06594,0.28317 z"
             id="path24663"
             transform="scale(0.26458333)" />
          <path
             style="fill:#012a10;fill-opacity:1;stroke:#000000;stroke-width:0.604369;stroke-miterlimit:4.2;stroke-opacity:1"
             d="m 378.46221,589.73224 c -0.53903,-0.85942 -2.88638,-5.39547 -5.21634,-10.08011 -4.36929,-8.7849 -6.92256,-15.15179 -8.60597,-21.46007 -1.14547,-4.29241 -2.04887,-14.87129 -1.61572,-18.92005 0.29852,-2.79033 0.37578,-2.92258 3.31164,-5.66893 1.6533,-1.54658 2.90097,-2.91698 2.77261,-3.04534 -0.12835,-0.12835 -1.07393,0.19545 -2.10127,0.71956 -2.32968,1.18851 -2.8254,1.19415 -2.8254,0.0321 0,-0.50645 -0.21037,-0.92081 -0.46749,-0.92081 -0.25711,0 -2.94731,1.24309 -5.9782,2.76244 -4.83269,2.42255 -5.83732,2.7621 -8.16515,2.75972 -3.96045,-0.004 -10.90122,-1.16256 -15.31106,-2.55563 -5.53426,-1.74827 -23.98939,-10.04577 -23.41783,-10.52875 0.0895,-0.0756 2.75153,-1.7718 5.9156,-3.76926 4.80715,-3.03473 7.06187,-4.89975 13.71593,-11.34528 4.37969,-4.24245 8.51518,-8.07533 9.18996,-8.51753 1.00163,-0.65637 2.49863,-0.82922 8.1534,-0.94145 3.80957,-0.0756 8.1696,0.0391 9.68894,0.25483 3.12039,0.44313 2.30653,0.78393 13.75704,-5.76081 6.64117,-3.79589 7.60827,-4.02033 18.68031,-4.33543 l 5.27335,-0.15007 0.41237,1.72652 c 0.2268,0.94959 0.54718,1.72552 0.71194,1.72428 0.16476,-0.001 1.74985,-0.75073 3.52242,-1.66555 3.21206,-1.65773 3.23748,-1.66236 7.59671,-1.38106 7.07152,0.45632 18.0374,3.54859 25.09217,7.07574 7.71703,3.85828 14.54861,9.8238 22.54172,19.68407 2.258,2.78546 5.86602,7.11592 8.01782,9.62326 l 3.91236,4.55878 -16.31514,-0.31973 c -18.60175,-0.36454 -21.50647,-0.62996 -31.00093,-2.8327 -3.77238,-0.8752 -7.2982,-1.59128 -7.83514,-1.59128 -1.06005,0 -2.2617,0.74237 -9.23861,5.70751 l -4.59554,3.27043 1.7437,0.14442 c 0.95904,0.0794 1.85142,0.42515 1.98309,0.76825 0.34862,0.90848 -0.96216,7.46774 -3.57383,17.88378 -4.69371,18.71983 -9.59398,29.64367 -16.2268,36.17332 l -2.52263,2.48339 z"
             id="path24702"
             transform="scale(0.26458333)" />
          <path
             style="fill:#013310;fill-opacity:1;stroke:#000000;stroke-width:0.604369;stroke-miterlimit:4.2;stroke-opacity:0;paint-order:markers stroke fill"
             d="m 378.46221,589.73224 c -0.53903,-0.85942 -2.88638,-5.39547 -5.21634,-10.08011 -4.37102,-8.78839 -6.92491,-15.15762 -8.60489,-21.46007 -1.13679,-4.26467 -2.03711,-14.3346 -1.66075,-18.57525 0.2605,-2.93518 0.30287,-3.01193 3.36767,-6.10039 1.70711,-1.7203 2.94576,-3.12781 2.75254,-3.12781 -0.19321,0 -1.16352,0.41436 -2.15624,0.92081 -2.26531,1.15567 -2.76244,1.15567 -2.76244,0 0,-0.50645 -0.21037,-0.92081 -0.46749,-0.92081 -0.25711,0 -2.94731,1.24309 -5.9782,2.76244 -4.98266,2.49772 -5.78715,2.76226 -8.39535,2.76059 -8.86301,-0.006 -19.43492,-3.31447 -34.16252,-10.69213 l -4.5743,-2.29146 2.41259,-1.52118 c 8.21209,-5.17787 10.31458,-6.83301 17.62311,-13.87346 4.33134,-4.17246 8.41076,-7.93656 9.06539,-8.36468 1.0267,-0.67144 2.58608,-0.77839 11.34912,-0.77839 h 10.15888 l 5.28274,-2.93982 c 2.90551,-1.6169 6.42599,-3.63672 7.82329,-4.4885 2.90324,-1.76976 6.14382,-2.30784 15.38243,-2.55419 l 5.49199,-0.14644 0.41958,1.61142 c 0.23076,0.88628 0.48331,1.67652 0.56121,1.75608 0.0779,0.0795 1.66329,-0.62165 3.5231,-1.55823 l 3.38147,-1.70288 4.37753,0.29266 c 10.11141,0.67599 22.98778,5.11909 31.57279,10.89446 4.71954,3.17496 10.48083,8.98333 18.02523,18.17252 3.32638,4.05158 6.9351,8.38249 8.01939,9.62425 l 1.97143,2.25774 -16.55589,-0.33189 c -18.8358,-0.37761 -20.58251,-0.53939 -31.14263,-2.88442 -6.04805,-1.34306 -7.90744,-1.60096 -8.74772,-1.21335 -0.58691,0.27074 -3.64284,2.33042 -6.79097,4.57708 l -5.72388,4.08483 1.72102,0.14442 c 0.94656,0.0794 1.82873,0.42515 1.9604,0.76825 0.59061,1.5391 -4.55489,23.18317 -7.63491,32.11556 -3.50249,10.15762 -7.47687,17.32562 -12.16572,21.94154 l -2.52263,2.48339 z"
             id="path24741"
             transform="scale(0.26458333)" />
          <path
             style="fill:#013310;fill-opacity:1;stroke:#000000;stroke-width:0.604369;stroke-miterlimit:4.2;stroke-opacity:1"
             d="m 378.69798,487.51502 c 0.20422,-0.34917 0.92971,-1.35999 1.61219,-2.24628 3.01115,-3.91032 3.8967,-7.68675 4.8309,-20.60146 0.38015,-5.25535 1.01732,-11.07431 1.41594,-12.93102 1.51006,-7.03368 7.69115,-16.6513 17.34807,-26.99317 l 3.85257,-4.12581 2.00473,0.60063 2.00473,0.60063 -2.37109,1.36895 c -4.59697,2.65404 -10.70106,10.89022 -15.05476,20.31324 -4.21201,9.11635 -4.40499,16.95266 -0.88935,36.11393 0.61419,3.34747 1.1167,6.38239 1.1167,6.74427 0,0.70387 -1.64824,0.92299 -11.22872,1.49279 -4.19051,0.24923 -4.95229,0.19397 -4.64191,-0.3367 z"
             id="path24780"
             transform="scale(0.26458333)" />
          <path
             style="fill:#012a10;fill-opacity:1;stroke:#000000;stroke-width:0.0534192;stroke-miterlimit:4.2;stroke-opacity:1"
             d="m 376.9454,488.4632 c 1.05812,-0.98049 2.22344,-2.30783 3.43508,-3.91267 1.16214,-1.53928 2.32384,-4.08804 2.94914,-6.47044 0.0793,-0.30215 0.15395,-0.55853 0.16588,-0.56972 0.074,-0.0694 -0.28658,1.43869 -0.56419,2.3597 -0.71523,2.37295 -1.41598,3.52626 -4.54901,7.48687 -0.53935,0.68181 -0.98063,1.25362 -0.98063,1.27069 0,0.0171 0.0504,0.0224 0.11191,0.0119 0.27444,-0.047 1.95426,-0.26827 2.45185,-0.32302 1.22401,-0.13468 4.52011,-0.35428 7.97614,-0.5314 3.83848,-0.19672 5.68542,-0.3626 6.57751,-0.59076 0.41072,-0.10505 0.50335,-0.16694 0.50335,-0.33633 0,-0.19483 -0.17411,-1.15164 -0.38508,-2.11617 -0.5118,-2.33987 -1.69631,-9.07111 -2.31806,-13.17286 -0.5544,-3.65741 -0.91414,-6.80898 -1.07998,-9.46149 -0.12391,-1.98185 -0.13879,-5.06648 -0.0244,-5.06648 0.033,0 0.0455,0.56355 0.0454,2.0449 -1.6e-4,2.06696 0.0307,2.85185 0.18387,4.66971 0.17676,2.09821 0.33807,3.35209 0.91615,7.12155 1.01073,6.59062 1.8632,11.23531 2.88833,15.73696 0.12468,0.54749 0.23663,1.02134 0.24878,1.05302 0.0186,0.0485 -0.10603,0.0576 -0.78597,0.0578 -2.15229,6.2e-4 -6.40949,0.15517 -8.98769,0.32628 -2.90228,0.19263 -6.02595,0.47908 -8.43092,0.77315 -0.36203,0.0443 -0.69554,0.0805 -0.74113,0.0805 -0.0592,0 0.0533,-0.12623 0.39374,-0.44166 z"
             id="path24819"
             transform="scale(0.26458333)" />
          <path
             style="fill:#012a10;fill-opacity:1;stroke:#000000;stroke-width:0.0534192;stroke-miterlimit:4.2;stroke-opacity:1"
             d="m 360.59819,498.37196 c 0.0964,-0.0838 1.74655,-1.19923 1.80752,-1.22181 0.0448,-0.0166 0.38355,-0.20077 0.75285,-0.40932 1.50369,-0.84914 3.20559,-1.77236 5.81933,-3.15677 4.08726,-2.16489 5.36386,-2.94304 6.98394,-4.25707 l 0.44282,-0.35916 0.7732,-0.0921 c 5.47677,-0.65235 10.9028,-1.01277 16.50494,-1.09631 l 1.82311,-0.0272 0.0233,0.0981 c 0.0128,0.054 0.20798,0.83066 0.43374,1.72594 0.22575,0.89528 0.41994,1.66898 0.43153,1.71934 0.0145,0.0629 0.002,0.0916 -0.0385,0.0916 -0.13917,0 -0.37299,-0.80012 -0.74401,-2.54582 -0.0806,-0.37917 -0.15661,-0.72383 -0.16895,-0.7659 -0.0218,-0.0742 -0.10472,-0.0758 -2.73438,-0.0536 -1.49157,0.0126 -3.0782,0.0424 -3.52584,0.0661 -6.43178,0.3408 -9.9466,0.6591 -11.78108,1.06686 -0.82446,0.18326 -1.26764,0.38055 -2.17716,0.96917 -1.54378,0.9991 -4.584,2.74671 -10.34998,5.94947 -2.29042,1.27224 -4.1934,2.31316 -4.22885,2.31316 -0.0354,0 -0.0568,-0.007 -0.0475,-0.0147 z"
             id="path24932"
             transform="scale(0.26458333)" />
          <path
             style="fill:#012a10;fill-opacity:1;stroke:#000000;stroke-width:0.0534192;stroke-miterlimit:4.2;stroke-opacity:1"
             d="m 396.97916,491.16728 c 0.009,-0.009 1.34462,-0.74342 2.96731,-1.63191 l 2.95036,-1.61542 0.65111,0.0256 c 2.7808,0.10913 8.13797,0.54812 10.76372,0.88203 0.33609,0.0427 2.48749,0.64626 5.18856,1.45553 1.52647,0.45734 1.44466,0.42571 1.44466,0.55853 0,0.083 -0.0163,0.10286 -0.0712,0.0872 -0.0392,-0.0111 -0.45578,-0.1313 -0.9258,-0.26701 -3.66618,-1.05851 -7.3043,-1.78929 -10.55019,-2.11918 -0.4196,-0.0426 -1.98985,-0.18281 -3.48945,-0.31147 l -2.72654,-0.23394 -1.68882,0.92933 c -1.92101,1.05709 -3.26953,1.75585 -3.96207,2.05301 -0.4145,0.17786 -0.60993,0.24436 -0.55164,0.18772 z"
             id="path24971"
             transform="scale(0.26458333)" />
          <path
             style="fill:#012a10;fill-opacity:1;stroke:#000000;stroke-width:0.0534192;stroke-miterlimit:4.2;stroke-opacity:1"
             d="m 396.29231,491.29555 c -0.10623,-0.12799 -0.34784,-1.02989 -0.68951,-2.57382 l -0.1531,-0.69181 -2.90965,0.004 c -2.1808,0.003 -3.20528,0.0213 -4.0898,0.0724 -6.088,0.35178 -8.84665,0.6002 -10.71131,0.96455 -1.04523,0.20424 -1.42946,0.35758 -2.39235,0.95474 -1.34084,0.83156 -1.8977,1.16604 -1.91405,1.14968 -0.01,-0.01 0.26149,-0.19937 0.6024,-0.42174 0.6925,-0.4517 1.20612,-0.82506 1.90739,-1.38651 l 0.47366,-0.37922 0.66579,-0.0811 c 4.06458,-0.49494 8.65145,-0.8513 13.11834,-1.0192 1.17386,-0.0441 5.27579,-0.13194 5.28997,-0.11326 0.0294,0.0388 0.88211,3.53799 0.86605,3.55405 -0.0109,0.0109 -0.0397,-0.004 -0.0638,-0.0331 z"
             id="path25010"
             transform="scale(0.26458333)" />
          <path
             style="fill:#012a10;fill-opacity:1;stroke:#000000;stroke-width:0.00512767;stroke-miterlimit:4.2;stroke-opacity:1"
             d="m 386.33984,488.04102 c 0,-0.008 0.002,-0.01 0.0118,-0.01 0.006,0 0.16071,-0.009 0.34278,-0.0194 2.39461,-0.14054 4.87861,-0.22871 7.26071,-0.25771 0.17617,-0.002 0.40864,-0.005 0.5166,-0.006 0.1943,-0.002 0.19629,-0.002 0.19629,0.005 0,0.007 -0.003,0.008 -0.0518,0.0101 -0.0285,10e-4 -0.25215,0.005 -0.49707,0.008 -2.69483,0.0369 -5.10104,0.1218 -7.53013,0.26564 -0.12615,0.007 -0.23381,0.0136 -0.23926,0.0136 -0.008,0 -0.01,-0.002 -0.01,-0.01 z"
             id="path25125"
             transform="scale(0.26458333)" />
          <path
             style="fill:#012a10;fill-opacity:1;stroke:#000000;stroke-width:0.00512767;stroke-miterlimit:4.2;stroke-opacity:1"
             d="m 386.33984,487.94215 v -0.0696 l 0.0889,-0.005 c 0.0489,-0.003 0.19873,-0.0108 0.33301,-0.0182 0.27639,-0.0152 0.70451,-0.0379 1.36328,-0.0723 3.84841,-0.20081 5.60122,-0.36381 6.47266,-0.60189 0.0311,-0.009 0.0597,-0.0164 0.0635,-0.0176 0.006,-0.002 0.007,0.0132 0.007,0.28136 v 0.28347 l -0.0947,4e-5 c -0.13994,6e-5 -0.74769,0.007 -1.01465,0.0117 -1.72912,0.0299 -3.9702,0.10793 -5.94726,0.20716 -0.47033,0.0236 -1.20766,0.0638 -1.25098,0.0682 l -0.0205,0.002 z"
             id="path25164"
             transform="scale(0.26458333)" />
          <path
             style="fill:#012a10;fill-opacity:1;stroke:#000000;stroke-width:0.00512767;stroke-miterlimit:4.2;stroke-opacity:1"
             d="m 386.33984,488.02226 c 0,-0.004 0.004,-0.007 0.0127,-0.008 0.0227,-0.004 0.77851,-0.0447 1.29394,-0.0705 1.97818,-0.0988 4.16403,-0.17488 5.89454,-0.20519 0.29076,-0.005 0.85804,-0.0117 1.01074,-0.0117 0.1112,-4e-5 0.11621,2.8e-4 0.11621,0.007 0,0.008 10e-4,0.008 -0.67188,0.0161 -2.33779,0.0269 -4.81623,0.11392 -7.23047,0.25389 -0.18369,0.0107 -0.35463,0.0205 -0.37988,0.022 -0.0406,0.002 -0.0459,0.002 -0.0459,-0.004 z"
             id="path25203"
             transform="scale(0.26458333)" />
          <path
             style="fill:#012a10;fill-opacity:1;stroke:#000000;stroke-width:0.00512767;stroke-miterlimit:4.2;stroke-opacity:1"
             d="m 386.33984,486.81667 v -1.03151 h 4.16407 4.16406 v 0.67744 0.67744 l -0.0205,0.006 c -0.0487,0.0147 -0.24701,0.062 -0.3353,0.08 -0.85969,0.17474 -2.47134,0.32856 -4.81216,0.45926 -0.35989,0.0201 -0.70414,0.0377 -1.33789,0.0684 -0.73182,0.0355 -1.71384,0.0859 -1.79199,0.0919 l -0.0303,0.002 z"
             id="path25242"
             transform="scale(0.26458333)" />
          <path
             style="fill:#012a10;fill-opacity:1;stroke:#000000;stroke-width:0.00512767;stroke-miterlimit:4.2;stroke-opacity:1"
             d="m 386.33984,487.9416 v -0.0705 l 0.0166,-4e-5 c 0.009,-10e-6 0.0456,-0.002 0.0811,-0.004 0.11579,-0.007 0.92264,-0.05 1.53516,-0.082 1.96074,-0.10254 3.27687,-0.18626 4.17773,-0.26573 1.03681,-0.0915 1.65801,-0.17038 2.15173,-0.2733 0.10425,-0.0217 0.29424,-0.0685 0.35901,-0.0883 0.006,-0.002 0.007,0.0132 0.007,0.28082 v 0.28292 l -0.29785,0.003 c -0.42504,0.004 -0.84612,0.01 -1.12989,0.0162 -0.0494,10e-4 -0.17421,0.004 -0.27734,0.006 -0.10312,0.002 -0.2209,0.005 -0.26172,0.006 -0.0408,10e-4 -0.17969,0.005 -0.30859,0.008 -0.12891,0.003 -0.26338,0.007 -0.29883,0.008 -0.0355,0.001 -0.15762,0.005 -0.27148,0.008 -0.57961,0.0163 -1.5309,0.049 -2.1543,0.0741 -0.55687,0.0224 -0.66627,0.027 -1.06641,0.045 -0.78552,0.0354 -2.13708,0.10488 -2.23926,0.11519 l -0.0225,0.002 z"
             id="path25281"
             transform="scale(0.26458333)" />
          <path
             style="fill:#012a10;fill-opacity:1;stroke:#000000;stroke-width:0.00512767;stroke-miterlimit:4.2;stroke-opacity:1"
             d="m 386.33984,487.94141 v -0.0703 l 0.0147,-4e-5 c 0.008,-10e-6 0.0762,-0.003 0.15137,-0.008 0.23521,-0.0132 0.69293,-0.0377 1.42578,-0.0762 1.16629,-0.0613 1.71921,-0.0927 2.47852,-0.14076 1.99751,-0.12643 3.24291,-0.25658 3.94726,-0.4125 0.0927,-0.0205 0.24395,-0.0584 0.30371,-0.0761 0.006,-0.002 0.007,0.0133 0.007,0.28144 v 0.28347 l -0.0732,4e-5 c -0.56236,3.6e-4 -2.08897,0.0302 -2.89161,0.0565 -0.0333,0.001 -0.0913,0.003 -0.1289,0.004 -0.0376,10e-4 -0.0956,0.003 -0.12891,0.004 -0.0333,10e-4 -0.16953,0.006 -0.30273,0.01 -1.43017,0.0457 -3.19417,0.12249 -4.44336,0.19331 -0.0569,0.003 -0.13516,0.008 -0.17383,0.01 -0.0387,0.002 -0.0949,0.006 -0.125,0.008 -0.0301,0.002 -0.056,0.004 -0.0576,0.004 -0.002,2e-5 -0.003,-0.0316 -0.003,-0.0703 z"
             id="path25320"
             transform="scale(0.26458333)" />
          <path
             style="fill:#012a10;fill-opacity:1;stroke:#000000;stroke-width:0.00512767;stroke-miterlimit:4.2;stroke-opacity:1"
             d="m 386.33984,486.81676 v -1.0316 h 4.16407 4.16406 v 0.67743 0.67743 l -0.0127,0.004 c -0.025,0.008 -0.13111,0.0351 -0.19824,0.0507 -0.84439,0.19633 -2.67162,0.37126 -5.34961,0.51216 -0.24431,0.0128 -0.47035,0.0242 -0.89844,0.045 -0.15468,0.008 -0.37177,0.0181 -0.48242,0.0234 -0.38966,0.019 -1.29484,0.0661 -1.35449,0.0706 l -0.0322,0.002 z"
             id="path25359"
             transform="scale(0.26458333)" />
          <path
             style="fill:#012a10;fill-opacity:1;stroke:#000000;stroke-width:0.00512767;stroke-miterlimit:4.2;stroke-opacity:1"
             d="m 386.33984,488.25568 c 0,-0.004 0.004,-0.006 0.0108,-0.006 0.006,-3e-5 0.0362,-0.002 0.0674,-0.004 0.41772,-0.0281 2.67005,-0.15343 2.94336,-0.16382 0.26022,-0.01 1.20388,-0.0322 1.30273,-0.0308 0.0236,3.4e-4 0.004,0.002 -0.0469,0.004 -0.0483,0.002 -0.1459,0.005 -0.2168,0.007 -1.11617,0.0378 -2.32093,0.0958 -3.85742,0.18566 -0.0913,0.005 -0.17437,0.0105 -0.18457,0.0115 -0.0145,10e-4 -0.0186,5.7e-4 -0.0186,-0.004 z"
             id="path25513"
             transform="scale(0.26458333)" />
          <path
             style="fill:#012a10;fill-opacity:1;stroke:#000000;stroke-width:0.116026;stroke-miterlimit:4.2;stroke-opacity:1"
             d="m 411.8897,488.51488 c -1.74401,-0.19236 -5.72859,-0.50707 -7.51301,-0.5934 l -1.28163,-0.062 0.64146,-0.35886 0.64147,-0.35886 1.21469,0.11657 c 2.73256,0.26224 5.9176,0.78468 7.66704,1.25762 0.76884,0.20785 0.52236,0.20766 -1.37002,-10e-4 z"
             id="path25552"
             transform="scale(0.26458333)" />
        </g>
      </g>
    </g>
    <circle
       id="path5312"
       style="fill:#00ff00;stroke:#000000;stroke-width:0.264583"
       cx="133.34999"
       cy="175.68333"
       r="0.04622006" />
    <circle
       id="path5314"
       style="fill:#00ff00;stroke:#000000;stroke-width:0.264583"
       cx="133.34999"
       cy="175.68333"
       r="0.04622006" />
    <circle
       id="path5316"
       style="fill:#00ff00;stroke:#000000;stroke-width:0.264583"
       cx="133.34999"
       cy="175.68333"
       r="0.04622006" />
    <circle
       id="path5318"
       style="fill:#00ff00;stroke:#000000;stroke-width:0.264583"
       cx="133.34999"
       cy="175.68333"
       r="0.04622006" />
    <circle
       id="path8262"
       style="fill:#002a00;stroke:#000000;stroke-width:0.264583"
       cx="123.825"
       cy="83.34375"
       r="0.04622006" />
    <circle
       id="path8264"
       style="fill:#002a00;stroke:#000000;stroke-width:0.264583"
       cx="123.825"
       cy="83.34375"
       r="0.04622006" />
    <g
       id="g10142"
       transform="translate(1.3229167,9.2604167)"
       inkscape:export-filename="C:\Users\matheus\Desktop\models\orange.png"
       inkscape:export-xdpi="96"
       inkscape:export-ydpi="96">
      <circle
         style="fill:#ff6600;stroke:#000000;stroke-width:0.347001;stroke-linecap:square;stroke-linejoin:round;stroke-miterlimit:4.2;paint-order:markers stroke fill"
         id="path4727"
         cx="35.586456"
         cy="185.47292"
         r="32.279167" />
      <circle
         style="mix-blend-mode:darken;fill:#d45500;fill-opacity:0.996078;stroke:#000000;stroke-width:0.347001;stroke-linecap:square;stroke-linejoin:round;stroke-miterlimit:4.2;stroke-opacity:0;paint-order:markers stroke fill"
         id="path9038-8"
         cx="21.957563"
         cy="211.97346"
         r="2.6458333"
         transform="rotate(-8.2386136)" />
      <circle
         style="mix-blend-mode:darken;fill:#d45500;fill-opacity:0.996078;stroke:#000000;stroke-width:0.347001;stroke-linecap:square;stroke-linejoin:round;stroke-miterlimit:4.2;stroke-opacity:0;paint-order:markers stroke fill"
         id="path9038-86"
         cx="22.486727"
         cy="205.88806"
         r="2.6458333"
         transform="rotate(-8.2386136)" />
      <circle
         style="mix-blend-mode:darken;fill:#d45500;fill-opacity:0.996078;stroke:#000000;stroke-width:0.347001;stroke-linecap:square;stroke-linejoin:round;stroke-miterlimit:4.2;stroke-opacity:0;paint-order:markers stroke fill"
         id="path9038-2"
         cx="29.630472"
         cy="206.68181"
         r="2.6458333"
         transform="rotate(-8.2386136)" />
      <circle
         style="mix-blend-mode:darken;fill:#d45500;fill-opacity:0.996078;stroke:#000000;stroke-width:0.347001;stroke-linecap:square;stroke-linejoin:round;stroke-miterlimit:4.2;stroke-opacity:0;paint-order:markers stroke fill"
         id="path9038-3"
         cx="30.159639"
         cy="199.53806"
         r="2.6458333"
         transform="rotate(-8.2386136)" />
      <path
         style="fill:#aa4400;stroke:#000000;stroke-width:0.347001;stroke-linecap:square;stroke-linejoin:round;stroke-miterlimit:4.2;paint-order:markers stroke fill"
         id="path5164"
         d="m 23.205494,159.16819 c -3.029886,1.41615 -5.784147,3.43757 -8.087097,5.86506 -0.941256,0.99217 -1.767732,2.08721 -2.6516,3.13082 -0.768884,1.29151 -1.656198,2.51953 -2.306662,3.87456 -1.99494,4.15579 -3.020547,8.88367 -2.859537,13.49274 0.127337,3.64522 0.613176,4.5249 1.62084,7.90152 0,0 3.290626,-0.33366 3.290626,-0.33366 v 0 c -1.065889,-3.32087 -1.571676,-4.17099 -1.729706,-7.77994 -0.19975,-4.5618 0.824545,-9.24862 2.863668,-13.33278 0.669952,-1.34185 1.584227,-2.54713 2.376337,-3.82068 0.918676,-1.02948 1.777395,-2.11579 2.756039,-3.08846 2.479913,-2.46478 5.44357,-4.42679 8.678767,-5.7395 0,0 -3.951675,-0.16968 -3.951675,-0.16968 z" />
      <g
         id="g8855"
         transform="rotate(11.97346,-28.223158,-142.34674)">
        <path
           style="fill:#002a00;fill-opacity:0.996078;stroke:#000000;stroke-width:0.347001;stroke-linecap:square;stroke-linejoin:round;stroke-miterlimit:4.2;paint-order:markers stroke fill"
           id="path8272"
           d="m 79.708941,101.89769 c -1.507988,2.82379 -1.649932,6.11135 -1.806675,9.23805 -0.121581,3.29569 0.289883,6.57696 1.482125,9.66647 0.762313,1.97542 1.29562,2.75177 2.340708,4.58729 2.165632,3.43506 5.050722,6.38097 8.346723,8.74663 0.573797,0.41184 1.177381,0.78053 1.766077,1.1708 1.962347,1.20137 3.955386,2.53031 6.257065,2.94593 0.48152,0.0707 0.962094,0.0389 1.443147,-0.005 0,0 2.668059,-2.88051 2.668059,-2.88051 v 0 c -0.46236,0.0749 -0.92523,0.14098 -1.39595,0.10749 -2.313855,-0.25111 -4.358298,-1.49707 -6.332455,-2.6438 -1.522935,-0.98129 -2.11797,-1.3067 -3.542718,-2.4668 -2.537835,-2.06647 -4.785183,-4.48578 -6.519173,-7.26759 -1.050406,-1.86335 -1.523691,-2.5361 -2.280867,-4.54088 -1.158841,-3.06827 -1.528656,-6.31756 -1.381835,-9.58004 0.05135,-0.7796 0.07384,-1.56163 0.154074,-2.33878 0.249191,-2.41352 0.769393,-4.87932 2.047238,-6.972092 0,0 -3.245545,2.232422 -3.245545,2.232422 z" />
        <path
           style="fill:#002a00;fill-opacity:0.996078;stroke:#000000;stroke-width:0.347001;stroke-linecap:square;stroke-linejoin:round;stroke-miterlimit:4.2;paint-order:markers stroke fill"
           id="path8280"
           d="m 79.19188,102.13065 c 0.450755,-0.14401 0.743848,-0.26863 1.242849,-0.2736 2.036362,-0.0204 3.818295,1.134 5.503913,2.12543 2.980506,1.92859 5.362626,4.62062 7.181477,7.6551 0.382492,0.6381 0.709684,1.30777 1.06454,1.96166 1.877772,3.52033 3.150169,7.29953 4.319193,11.0998 0.54649,1.80053 1.006713,3.62554 1.388213,5.46773 0.274965,0.93231 0.205815,1.89914 0.240315,2.85778 0.0975,0.73919 -0.0501,1.4653 -0.10199,2.1986 -0.08041,0.16035 -0.04379,0.35431 -0.110319,0.51772 -0.05919,0.14528 -0.179793,0.25847 -0.249942,0.3988 -0.118987,0.23809 -0.1253,0.28785 -0.211035,0.54402 -0.125812,0.3059 -0.238641,0.60413 -0.322723,0.92404 0,0 3.195469,-2.30087 3.195469,-2.30087 v 0 c 0.10996,-0.30485 0.22747,-0.60627 0.34558,-0.90803 0.2222,-0.50602 0.50083,-0.9762 0.50204,-1.54955 0.0683,-0.73795 0.13144,-1.47445 0.0514,-2.21604 -0.0276,-0.979 -0.002,-1.96271 -0.29568,-2.91012 -0.45414,-1.8085 -0.97642,-3.59932 -1.56101,-5.37004 -1.26961,-3.7755 -2.543957,-7.56526 -4.44963,-11.07986 -0.360844,-0.66221 -0.69402,-1.34027 -1.082544,-1.98663 -1.846772,-3.07234 -4.247856,-5.82462 -7.240974,-7.81835 -1.769213,-1.09817 -4.065371,-2.696792 -6.280179,-2.410398 -0.171585,0.02217 -0.33445,0.08886 -0.501667,0.133274 0,0 -2.627228,2.939574 -2.627228,2.939574 z" />
        <path
           style="fill:#002a00;fill-opacity:0.996078;stroke:#000000;stroke-width:0.347001;stroke-linecap:square;stroke-linejoin:round;stroke-miterlimit:4.2;paint-order:markers stroke fill"
           id="path8272-5"
           d="m 131.13395,109.26289 c -3.08656,-0.84912 -6.32467,-0.2636 -9.40913,0.27206 -3.24155,0.60717 -6.35166,1.73112 -9.10277,3.57446 -1.75905,1.17862 -2.3989,1.86979 -3.95921,3.29345 -2.87383,2.86892 -5.11208,6.33192 -6.69383,10.06797 -0.27537,0.65039 -0.50209,1.32035 -0.75314,1.98054 -0.73973,2.17874 -1.597149,4.41551 -1.495698,6.7522 0.03706,0.48527 0.173884,0.94706 0.322278,1.40671 0,0 3.39736,1.96823 3.39736,1.96823 v 0 c -0.17491,-0.43452 -0.34128,-0.87148 -0.41227,-1.33801 -0.2646,-2.31236 0.50055,-4.58099 1.18441,-6.75921 0.62182,-1.70164 0.8082,-2.35373 1.62608,-3.99898 1.45686,-2.93061 3.32187,-5.65555 5.65354,-7.95958 1.58629,-1.43495 2.13829,-2.04477 3.92711,-3.22485 2.73775,-1.80607 5.82584,-2.88235 9.04057,-3.45759 0.77177,-0.12158 1.53955,-0.27187 2.31529,-0.36475 2.40915,-0.28842 4.92897,-0.324 7.25177,0.46161 0,0 -2.89234,-2.67425 -2.89234,-2.67425 z" />
        <path
           style="fill:#002a00;fill-opacity:0.996078;stroke:#000000;stroke-width:0.347001;stroke-linecap:square;stroke-linejoin:round;stroke-miterlimit:4.2;paint-order:markers stroke fill"
           id="path8280-8"
           d="m 130.79284,108.80983 c 0.23974,0.40797 0.42585,0.66643 0.54058,1.15209 0.46835,1.98187 -0.26531,3.97428 -0.86119,5.83684 -1.22489,3.33205 -3.32626,6.24852 -5.88569,8.69097 -0.53822,0.51362 -1.11939,0.98025 -1.67908,1.4704 -3.0204,2.6069 -6.42662,4.68031 -9.87615,6.65752 -1.63599,0.92957 -3.31485,1.7804 -5.0278,2.55822 -0.84886,0.47353 -1.80719,0.61898 -2.7347,0.86374 -0.6996,0.25784 -1.44037,0.27384 -2.1671,0.38468 -0.17411,-0.0431 -0.35525,0.0354 -0.52929,0.006 -0.15474,-0.0258 -0.29171,-0.11849 -0.44405,-0.156 -0.25844,-0.0637 -0.30846,-0.0585 -0.57713,-0.0861 -0.32605,-0.0556 -0.64185,-0.0998 -0.97245,-0.11126 0,0 2.9481,2.61034 2.9481,2.61034 v 0 c 0.32156,0.0401 0.64146,0.0884 0.96183,0.13715 0.54258,0.10508 1.06251,0.27359 1.62206,0.14848 0.73489,-0.0959 1.4672,-0.19648 2.17296,-0.43789 0.94888,-0.24256 1.91415,-0.43391 2.77357,-0.92928 1.66409,-0.84125 3.29593,-1.74508 4.89446,-2.70526 3.40321,-2.06987 6.8193,-4.1475 9.82796,-6.78037 0.56649,-0.49781 1.15454,-0.97213 1.69947,-1.49346 2.59023,-2.47801 4.74617,-5.42625 6.03183,-8.78494 0.6816,-1.96762 1.73533,-4.55946 0.96823,-6.65682 -0.0595,-0.16249 -0.16033,-0.30667 -0.24047,-0.46 0,0 -3.44598,-1.91538 -3.44598,-1.91538 z" />
        <path
           style="fill:#008000;fill-opacity:0.996078;stroke:#000000;stroke-width:1.3115;stroke-linecap:square;stroke-linejoin:round;stroke-miterlimit:4.2;paint-order:markers stroke fill"
           d="m 368.19395,506.53207 c -29.33764,-14.08523 -51.95949,-39.85801 -59.32001,-67.58251 -2.63585,-9.92829 -3.13967,-30.71548 -1.0295,-42.47562 1.80683,-10.06958 1.89382,-10.1426 8.26805,-6.94098 23.56633,11.8368 38.68055,32.88639 51.67444,71.96704 7.51685,22.60782 9.61266,32.74464 8.56725,41.43726 l -0.85418,7.1025 z"
           id="path8691"
           transform="scale(0.26458333)" />
        <path
           style="fill:#008000;fill-opacity:0.996078;stroke:#000000;stroke-width:1.3115;stroke-linecap:square;stroke-linejoin:round;stroke-miterlimit:4.2;paint-order:markers stroke fill"
           d="m 390.70192,510.25 c 2.11358,-13.75607 10.42207,-33.8163 19.36228,-46.74877 6.61881,-9.57445 20.91049,-23.2087 29.96861,-28.59003 12.75699,-7.57879 32.85194,-12.90102 48.73624,-12.908 l 7.26905,-0.003 -0.60633,2.75 c -4.1171,18.67282 -12.16607,32.38813 -27.06277,46.11452 -20.86616,19.22688 -62.88624,43.05214 -76.05613,43.12361 -1.96443,0.0107 -2.12846,-0.36996 -1.61095,-3.73813 z"
           id="path8730"
           transform="scale(0.26458333)" />
      </g>
      <circle
         style="mix-blend-mode:darken;fill:#d45500;fill-opacity:0.996078;stroke:#000000;stroke-width:0.347001;stroke-linecap:square;stroke-linejoin:round;stroke-miterlimit:4.2;stroke-opacity:0;paint-order:markers stroke fill"
         id="path9038"
         cx="15.078395"
         cy="212.76721"
         r="2.6458333"
         transform="rotate(-8.2386136)" />
    </g>
  </g>
</svg>
